<svg width="24" height="24" viewBox="0 0 24 24" fill="none" xmlns="http://www.w3.org/2000/svg">
<path d="M17.8895 22.0599C18.285 21.9752 18.8076 21.2254 19.0194 20.861C19.0312 20.7317 19.0547 20.4308 19.0547 20.2616C19.0547 20.05 19.196 19.7327 19.3372 19.0627C19.4784 18.3928 19.2313 17.8639 19.196 16.9471C19.1677 16.2137 18.9017 15.7717 18.7723 15.6424C18.7723 15.6072 18.8146 15.4943 18.9841 15.3251C19.1536 15.1558 19.1018 14.8314 19.0547 14.6904C19.1018 14.7139 19.2242 14.6763 19.3372 14.3378C19.4784 13.9147 18.7016 12.8921 18.1014 12.3985C17.6212 12.0035 16.842 11.9048 16.5124 11.9048L16.4065 11.6227C16.3359 11.5405 16.1099 11.39 15.7709 11.4464C15.432 11.5028 15.4649 12.1751 15.5238 12.5042L15.665 12.8921L15.9475 13.5973C15.9122 13.8206 15.8628 14.3519 15.9475 14.6904C16.0322 15.0289 16.4536 15.3486 16.6537 15.4661L16.3359 15.995L15.9475 16.8766L16.1947 17.3349L15.8416 17.9696L15.2766 17.8639L14.8176 18.428H14.641L14.4645 18.8864C14.4174 18.7219 14.3233 18.3363 14.3233 18.1107C14.3233 17.885 14.0879 17.0999 13.9702 16.7355L13.8995 17.5465L13.2993 16.3477L12.9109 15.995C13.0639 16.2419 13.3558 16.7778 13.2993 16.9471C13.2428 17.1163 12.5696 16.0773 12.24 15.5367L11.7457 15.3251L11.0042 15.043H10.7217C10.7923 15.1723 10.9053 15.5226 10.7923 15.8893C10.6793 16.256 10.1332 16.1126 9.87426 15.995L9.41525 16.4534V16.9471V17.4407C9.32109 17.382 9.13277 17.2997 9.13277 17.4407C9.13277 17.5818 8.33242 17.9461 7.93224 18.1107C7.97933 18.1812 8.07349 18.3716 8.07349 18.5691C8.07349 18.7665 7.43791 18.2517 7.12013 17.9696C7.02597 17.9344 6.78115 17.8498 6.55517 17.7933C6.32919 17.7369 5.96669 16.9941 5.81369 16.6297C5.79014 16.5357 5.73599 16.3053 5.70775 16.1361C5.6795 15.9668 5.08395 15.1018 4.7897 14.6904C3.90697 14.044 1.95789 13.0049 1.22345 14.0204C0.305408 15.2898 2.4946 16.665 2.77707 16.9471C3.05955 17.2292 4.08352 17.617 4.43662 17.6876C4.78971 17.7581 5.56652 18.7454 5.81369 18.9569C6.06085 19.1685 7.12014 19.3448 7.29668 19.4506C7.47323 19.5564 7.7204 20.0853 8.07349 20.4026C8.42659 20.72 8.95623 20.6847 9.02685 20.6847C9.09747 20.6847 8.95623 20.8963 8.88561 20.8963C8.82912 20.8963 8.76791 21.0843 8.74437 21.1784L9.41525 21.9893C9.68596 22.3067 10.3686 22.9766 10.9336 23.1177C11.4985 23.2587 12.4166 22.9414 12.805 22.7651C12.7579 22.9296 12.7414 23.2587 13.0521 23.2587C13.3628 23.2587 13.3464 22.8591 13.2993 22.6593C13.5935 22.5888 14.2526 22.4407 14.5351 22.4125C14.8176 22.3843 15.0765 22.5653 15.1707 22.6593C15.2648 23.0942 15.5167 23.971 15.7709 23.9992C16.0252 24.0274 15.971 23.3057 15.9122 22.9414L16.7596 22.7651L17.0774 22.9414L17.2186 22.1656C17.2775 22.1656 17.4941 22.1445 17.8895 22.0599Z" fill="white"/>
<path d="M14.8882 13.0331C15.0294 12.9274 15.1354 12.5042 15.2413 12.1516L15.0648 11.799C15.0059 11.7638 14.6764 11.5734 13.8289 11.0938C12.9815 10.6143 11.6868 10.847 11.1454 11.0233C11.063 11.0821 10.7923 11.1784 10.3686 11.0938C9.94488 11.0092 9.60356 11.4112 9.48586 11.6227L9.06215 11.658L8.8856 12.0106L8.99153 12.3632L9.48586 12.3985C9.3917 12.4102 9.21751 12.4972 9.274 12.7511C9.3305 13.0049 9.90957 13.5385 10.192 13.7736C10.2156 13.7031 10.305 13.555 10.4745 13.5268C10.6864 13.4915 12.4519 14.6199 13.0168 14.8314C13.4688 15.0007 14.029 14.8549 14.2526 14.7609L13.7936 13.3858L14.3939 14.4436L14.4998 14.1262C14.5563 13.957 14.5233 13.4915 14.4998 13.28C14.5822 13.233 14.7752 13.1178 14.8882 13.0331Z" fill="white"/>
<path d="M10.1214 9.93022C10.1497 10.7201 9.0033 11.0821 8.42658 11.1643L8.10879 10.7765L8.4972 10.2476L7.93224 10.0713L8.32065 9.68339L7.79101 9.40131V8.30823C8.19118 8.2142 9.06921 8.02614 9.37993 8.02614C9.76834 8.02614 10.0861 8.94292 10.1214 9.93022Z" fill="white"/>
<path d="M8.95622 7.84984L8.60312 7.95562H7.36729L6.73172 7.00359L6.80234 6.50994L6.73172 5.69894L7.61446 5.27582L9.06215 6.82728L8.95622 7.84984Z" fill="white"/>
<path d="M6.87296 5.09951L7.64977 5.06425C7.81455 4.92321 8.17235 4.60587 8.28534 4.46482C8.39833 4.32378 8.33242 3.77137 8.28534 3.51279L8.00286 3.16018L8.21472 3.51279L7.72039 3.40701L7.57915 2.94862L7.89693 2.98388C7.97932 3.04265 8.07348 3.07556 7.79101 2.73705C7.50853 2.39855 6.7788 2.80758 6.44925 3.0544L6.2727 3.86539V4.64113L6.87296 5.09951Z" fill="white"/>
<path d="M12.7696 10.3533C13.1086 10.3533 13.3817 10.1653 13.4758 10.0713L13.5465 9.40131L13.7936 8.20245L13.9349 7.46198L13.4758 6.75676L12.5578 6.68624L11.5338 7.10937L11.4279 7.46198L11.7457 8.90766L11.8516 9.93022C12.0164 10.0713 12.4307 10.3533 12.7696 10.3533Z" fill="white"/>
<path d="M12.6637 6.50994C12.8897 6.56635 13.1345 6.34539 13.2287 6.22785L13.7936 5.69894V4.74691L13.9349 4.218C13.8642 4.10046 13.6029 3.82308 13.1227 3.65383C12.6425 3.48458 12.1694 3.8889 11.9928 4.11222L11.8516 4.99373L12.1341 5.52264L11.9222 5.80473L12.1341 6.08681C12.2165 6.20435 12.4377 6.45352 12.6637 6.50994Z" fill="white"/>
<path d="M13.6171 3.40701L13.9349 2.84284L14.2173 1.64397L13.9349 1.04454C13.8525 0.809474 13.6312 0.28997 13.4052 0.0925101C13.1227 -0.154314 12.4165 0.163031 12.1341 0.233553C11.9081 0.28997 11.8987 1.10331 11.9222 1.50293L12.3459 2.31393L11.9928 2.52549L12.5578 3.2307H12.805L12.9462 3.40701H13.6171Z" fill="white"/>
<path d="M16.3712 4.60586C16.5972 4.69049 16.9362 4.47658 17.0774 4.35904V4.11222H17.4305L17.6424 3.58331L18.0308 2.73705C18.0543 2.56075 17.9319 2.09531 17.2539 1.64397C16.576 1.19264 16.077 2.09061 15.9122 2.59601L16.0534 3.51279V4.28852C16.0652 4.35904 16.1452 4.52124 16.3712 4.60586Z" fill="white"/>
<path d="M15.9828 6.68624C16.0417 6.78027 16.2229 6.97538 16.4771 7.00358L16.9715 6.79202L16.9009 6.40415L17.5011 5.87525C17.56 5.78122 17.6424 5.50148 17.5011 5.13477C17.3599 4.76806 17.0185 4.88795 16.8655 4.99373C16.9362 4.94672 16.9079 4.83153 16.23 4.74691C15.552 4.66229 15.7827 6.00454 15.9828 6.68624Z" fill="white"/>
<path d="M15.9828 9.26026L16.689 8.80188C16.7243 8.68434 16.7172 8.34349 16.4065 7.92036C16.0958 7.49723 15.5238 7.79107 15.2766 7.99088L15.0648 8.37875L15.4532 9.15448L15.9828 9.26026Z" fill="white"/>
<path d="M18.4192 11.3406L18.8076 11.4817L18.9841 11.3406V10.8823L19.2313 10.988L19.5138 10.8823L19.4078 10.3533L19.4784 10.0713L18.9841 9.71865L18.8076 9.89495L18.4192 9.78917L18.4545 10.177L18.4192 11.3406Z" fill="white"/>
<path d="M19.5138 9.08396L19.6903 9.40131L19.7962 9.15448L19.8668 8.94292L20.0787 8.69609L20.2553 7.99088L20.114 7.42671C20.2082 7.35619 20.4106 7.20104 20.4671 7.14463C20.5236 7.08821 20.7731 6.7215 20.8908 6.5452C20.9732 6.20434 21.0886 5.40275 20.8908 4.92321C20.6437 4.32378 19.7962 5.13477 19.5138 5.45212C19.2878 5.70599 19.1842 6.33363 19.1607 6.61572L19.2313 6.79202H19.5844L19.5138 7.03885L19.6197 7.49723L19.4078 7.46198L19.2313 7.7088L19.2666 7.95562L19.7609 8.0614L19.5844 8.44927L19.7962 8.80188L19.5138 9.08396Z" fill="white"/>
</svg>
